<?xml version="1.0" encoding="UTF-8"?>
<svg width="700pt" height="700pt" version="1.1" viewBox="0 0 700 700" xmlns="http://www.w3.org/2000/svg" xmlns:xlink="http://www.w3.org/1999/xlink">
 <defs>
  <symbol id="i" overflow="visible">
   <path d="m29.312-1.75c-1.5117 0.78125-3.0898 1.3711-4.7344 1.7656-1.6367 0.40625-3.3398 0.60938-5.1094 0.60938-5.3125 0-9.5273-1.4844-12.641-4.4531-3.1055-2.9688-4.6562-7-4.6562-12.094s1.5508-9.125 4.6562-12.094c3.1133-2.9688 7.3281-4.4531 12.641-4.4531 1.7695 0 3.4727 0.19922 5.1094 0.59375 1.6445 0.39844 3.2227 0.99219 4.7344 1.7812v6.5938c-1.5312-1.0391-3.0391-1.8008-4.5156-2.2812-1.4805-0.48828-3.0391-0.73438-4.6719-0.73438-2.9375 0-5.2461 0.94531-6.9219 2.8281-1.6797 1.875-2.5156 4.4648-2.5156 7.7656 0 3.293 0.83594 5.8828 2.5156 7.7656 1.6758 1.875 3.9844 2.8125 6.9219 2.8125 1.6328 0 3.1914-0.23828 4.6719-0.71875 1.4766-0.48828 2.9844-1.2539 4.5156-2.2969z"/>
  </symbol>
  <symbol id="d" overflow="visible">
   <path d="m21.453-17.406c-0.67969-0.3125-1.3516-0.53906-2.0156-0.6875-0.65625-0.15625-1.3203-0.23438-1.9844-0.23438-1.9688 0-3.4844 0.63281-4.5469 1.8906-1.0547 1.2617-1.5781 3.0703-1.5781 5.4219v11.016h-7.6562v-23.922h7.6562v3.9219c0.97656-1.5625 2.1016-2.7031 3.375-3.4219 1.2812-0.71875 2.8125-1.0781 4.5938-1.0781 0.25 0 0.52344 0.011719 0.82812 0.03125 0.30078 0.023438 0.73438 0.070312 1.2969 0.14062z"/>
  </symbol>
  <symbol id="c" overflow="visible">
   <path d="m27.562-12.031v2.1875h-17.891c0.1875 1.793 0.83203 3.1367 1.9375 4.0312 1.1133 0.89844 2.6719 1.3438 4.6719 1.3438 1.6016 0 3.25-0.23438 4.9375-0.70312 1.6875-0.47656 3.4219-1.2031 5.2031-2.1719v5.8906c-1.8047 0.6875-3.6094 1.2031-5.4219 1.5469-1.8125 0.35156-3.6211 0.53125-5.4219 0.53125-4.3359 0-7.7031-1.0977-10.109-3.2969-2.3984-2.207-3.5938-5.2969-3.5938-9.2656 0-3.9062 1.1758-6.9727 3.5312-9.2031 2.3633-2.2383 5.6094-3.3594 9.7344-3.3594 3.7578 0 6.7695 1.1367 9.0312 3.4062 2.2578 2.2617 3.3906 5.2812 3.3906 9.0625zm-7.8594-2.5312c0-1.457-0.42969-2.6289-1.2812-3.5156-0.84375-0.89453-1.9492-1.3438-3.3125-1.3438-1.4922 0-2.6992 0.41797-3.625 1.25-0.91797 0.83594-1.4922 2.0391-1.7188 3.6094z"/>
  </symbol>
  <symbol id="a" overflow="visible">
   <path d="m14.391-10.766c-1.5938 0-2.793 0.27344-3.5938 0.8125-0.80469 0.54297-1.2031 1.3398-1.2031 2.3906 0 0.96875 0.32031 1.7305 0.96875 2.2812 0.64453 0.54297 1.5469 0.8125 2.7031 0.8125 1.4375 0 2.6445-0.51562 3.625-1.5469 0.98828-1.0312 1.4844-2.3203 1.4844-3.875v-0.875zm11.688-2.8906v13.656h-7.7031v-3.5469c-1.0312 1.4492-2.1875 2.5078-3.4688 3.1719s-2.8398 1-4.6719 1c-2.4805 0-4.4961-0.72266-6.0469-2.1719-1.543-1.4453-2.3125-3.3203-2.3125-5.625 0-2.8125 0.96094-4.8672 2.8906-6.1719 1.9375-1.3125 4.9688-1.9688 9.0938-1.9688h4.5156v-0.60938c0-1.207-0.48047-2.0938-1.4375-2.6562-0.94922-0.5625-2.4375-0.84375-4.4688-0.84375-1.6367 0-3.1562 0.16797-4.5625 0.5-1.4062 0.32422-2.7188 0.8125-3.9375 1.4688v-5.8281c1.6445-0.40625 3.2891-0.70703 4.9375-0.90625 1.6562-0.20703 3.3047-0.3125 4.9531-0.3125 4.3203 0 7.4375 0.85547 9.3438 2.5625 1.9141 1.6992 2.875 4.4609 2.875 8.2812z"/>
  </symbol>
  <symbol id="h" overflow="visible">
   <path d="m12.031-30.719v6.7969h7.875v5.4688h-7.875v10.141c0 1.1172 0.21875 1.8711 0.65625 2.2656 0.4375 0.38672 1.3125 0.57812 2.625 0.57812h3.9375v5.4688h-6.5625c-3.0234 0-5.1641-0.62891-6.4219-1.8906-1.2617-1.2578-1.8906-3.3984-1.8906-6.4219v-10.141h-3.7969v-5.4688h3.7969v-6.7969z"/>
  </symbol>
  <symbol id="b" overflow="visible">
   <path d="m19.953-20.422v-12.812h7.6875v33.234h-7.6875v-3.4531c-1.0547 1.4062-2.2148 2.4375-3.4844 3.0938-1.2734 0.65625-2.7422 0.98438-4.4062 0.98438-2.9492 0-5.3711-1.1719-7.2656-3.5156-1.8867-2.3438-2.8281-5.3594-2.8281-9.0469s0.94141-6.7031 2.8281-9.0469c1.8945-2.3438 4.3164-3.5156 7.2656-3.5156 1.6562 0 3.1172 0.33594 4.3906 1 1.2812 0.65625 2.4453 1.6836 3.5 3.0781zm-5.0469 15.484c1.6445 0 2.8945-0.59766 3.75-1.7969 0.86328-1.1953 1.2969-2.9297 1.2969-5.2031 0-2.2812-0.43359-4.0195-1.2969-5.2188-0.85547-1.1953-2.1055-1.7969-3.75-1.7969-1.625 0-2.8711 0.60156-3.7344 1.7969-0.85547 1.1992-1.2812 2.9375-1.2812 5.2188 0 2.2734 0.42578 4.0078 1.2812 5.2031 0.86328 1.1992 2.1094 1.7969 3.7344 1.7969z"/>
  </symbol>
  <symbol id="g" overflow="visible">
   <path d="m16.406-4.9375c1.6328 0 2.8828-0.59766 3.75-1.7969 0.86328-1.1953 1.2969-2.9297 1.2969-5.2031 0-2.2812-0.43359-4.0195-1.2969-5.2188-0.86719-1.1953-2.1172-1.7969-3.75-1.7969-1.6367 0-2.8906 0.60547-3.7656 1.8125-0.875 1.1992-1.3125 2.9336-1.3125 5.2031 0 2.2617 0.4375 3.9961 1.3125 5.2031 0.875 1.1992 2.1289 1.7969 3.7656 1.7969zm-5.0781-15.484c1.0508-1.3945 2.2188-2.4219 3.5-3.0781 1.2812-0.66406 2.7539-1 4.4219-1 2.9453 0 5.3672 1.1719 7.2656 3.5156 1.8945 2.3438 2.8438 5.3594 2.8438 9.0469s-0.94922 6.7031-2.8438 9.0469c-1.8984 2.3438-4.3203 3.5156-7.2656 3.5156-1.668 0-3.1406-0.33594-4.4219-1s-2.4492-1.6914-3.5-3.0781v3.4531h-7.6562v-33.234h7.6562z"/>
  </symbol>
  <symbol id="f" overflow="visible">
   <path d="m0.53125-23.922h7.6562l6.4219 16.234 5.4688-16.234h7.6562l-10.062 26.188c-1.0117 2.6641-2.1953 4.5234-3.5469 5.5781-1.3438 1.0625-3.1211 1.5938-5.3281 1.5938h-4.4219v-5.0156h2.3906c1.3008 0 2.2422-0.21094 2.8281-0.625 0.59375-0.40625 1.0547-1.1484 1.3906-2.2188l0.20312-0.65625z"/>
  </symbol>
  <symbol id="e" overflow="visible">
   <path d="m12.234-25.672v19.453h2.9531c3.3633 0 5.9297-0.83203 7.7031-2.5 1.7695-1.6641 2.6562-4.0859 2.6562-7.2656 0-3.1562-0.88672-5.5547-2.6562-7.2031-1.7617-1.6562-4.3281-2.4844-7.7031-2.4844zm-8.2188-6.2188h8.6719c4.8438 0 8.4453 0.34375 10.812 1.0312 2.375 0.6875 4.4102 1.8594 6.1094 3.5156 1.4883 1.4375 2.5977 3.1016 3.3281 4.9844 0.72656 1.875 1.0938 4 1.0938 6.375 0 2.4062-0.36719 4.5586-1.0938 6.4531-0.73047 1.8867-1.8398 3.5469-3.3281 4.9844-1.7109 1.6484-3.7617 2.8203-6.1562 3.5156-2.3984 0.6875-5.9844 1.0312-10.766 1.0312h-8.6719z"/>
  </symbol>
 </defs>
 <g>
  <path d="m87.5 17.5v17.5h35c25.52 0.03125 49.98 10.18 68.027 28.223 18.043 18.047 28.191 42.508 28.223 68.027v26.695c-30.867 2.2266-59.75 16.047-80.848 38.684-21.102 22.641-32.855 52.426-32.902 83.371 0 2.3203 0.92188 4.5469 2.5625 6.1875s3.8672 2.5625 6.1875 2.5625c4.9727-0.027344 9.9414-0.35547 14.875-0.98828-9.7148 16.152-14.855 34.641-14.875 53.488 0 2.3203 0.92188 4.5469 2.5625 6.1875s3.8672 2.5625 6.1875 2.5625h8.75c1.2344 0 2.4219-0.20312 3.6562-0.24609-8.1172 16.402-12.359 34.445-12.406 52.746 0 2.3203 0.92188 4.5469 2.5625 6.1875s3.8672 2.5625 6.1875 2.5625h17.5c14.188-0.097656 28.211-3.0742 41.211-8.75l30.703 38.387h0.003907c1.6602 2.0742 4.1719 3.2852 6.832 3.2852s5.1719-1.2109 6.832-3.2852l30.625-38.316c13.039 5.6523 27.086 8.6055 41.293 8.6797h17.5c2.3203 0 4.5469-0.92188 6.1875-2.5625s2.5625-3.8672 2.5625-6.1875c-0.042969-18.297-4.2773-36.34-12.371-52.746 1.2148 0 2.3984 0.24609 3.6211 0.24609h8.75c2.3203 0 4.5469-0.92188 6.1875-2.5625s2.5625-3.8672 2.5625-6.1875c-0.019531-18.848-5.1602-37.336-14.875-53.488 4.9336 0.63281 9.9023 0.96094 14.875 0.98828 2.3203 0 4.5469-0.92188 6.1875-2.5625s2.5625-3.8672 2.5625-6.1875c-0.046875-30.945-11.801-60.73-32.902-83.371-21.098-22.637-49.98-36.457-80.848-38.684v-26.695c-0.035156-39.133-20.199-75.496-53.375-96.25h97.441c1.6484 34.078 12.586 67.059 31.629 95.371 19.047 28.309 45.469 50.871 76.414 65.242l10.5 4.8281v0.003906c2.9844 1.375 6.4844 0.96094 9.0703-1.0664 2.582-2.0312 3.8086-5.3359 3.1797-8.5586l-13.316-66.484c21.277 12.707 44.914 20.969 69.473 24.281 9.25 22.227 14 46.062 13.984 70.133v28.77c-30.867 2.2266-59.75 16.043-80.848 38.684-21.102 22.641-32.855 52.422-32.902 83.371 0 2.3203 0.92188 4.5469 2.5625 6.1875s3.8672 2.5625 6.1875 2.5625c4.9727-0.027344 9.9414-0.35547 14.875-0.98828-9.7148 16.152-14.855 34.641-14.875 53.488 0 2.3203 0.92188 4.5469 2.5625 6.1875s3.8672 2.5625 6.1875 2.5625h8.75c1.2344 0 2.4219-0.20312 3.6562-0.24609-8.1133 16.402-12.359 34.445-12.406 52.746 0 2.3203 0.92188 4.5469 2.5625 6.1875s3.8672 2.5625 6.1875 2.5625h17.5c14.184-0.097657 28.203-3.0742 41.203-8.75l30.711 38.395h0.003907c1.6602 2.0781 4.1719 3.2852 6.832 3.2852s5.1719-1.207 6.832-3.2852l30.625-38.316c13.039 5.6445 27.086 8.5938 41.293 8.6719h17.5c2.3203 0 4.5469-0.92188 6.1875-2.5625s2.5625-3.8672 2.5625-6.1875c-0.042969-18.297-4.2734-36.336-12.363-52.746 1.207 0 2.3984 0.24609 3.6133 0.24609h8.75c2.3203 0 4.5469-0.92188 6.1875-2.5625s2.5625-3.8672 2.5625-6.1875c-0.019531-18.848-5.1602-37.336-14.875-53.488 4.9336 0.63281 9.9023 0.96094 14.875 0.98828 2.3203 0 4.5469-0.92188 6.1875-2.5625s2.5625-3.8672 2.5625-6.1875c0.019531-30.969-11.711-60.793-32.824-83.449-21.109-22.656-50.031-36.461-80.926-38.621v-28.754c0.015625-23.379-4.0742-46.582-12.082-68.547 24.945 0.75391 49.781-3.6328 72.965-12.879l38.621-15.453c2.7969-1.125 4.8203-3.6055 5.3516-6.5703 0.53516-2.9688-0.49609-6-2.7266-8.0273l-3.3516-3.0469v0.003907c-34.008-30.945-74.059-54.52-117.62-69.23h132.6v-17.5zm172.86 311.05c-1.7031 2.9883-3.625 5.8477-5.7461 8.5547l-27.109 33.891-27.125-33.879c-2.1211-2.7109-4.043-5.5703-5.75-8.5586 8.3047-6.2891 15.621-13.785 21.711-22.234l4.3125 5.3984c1.6602 2.0781 4.1758 3.2852 6.8359 3.2852 2.6562 0 5.1719-1.207 6.832-3.2852l4.3125-5.3984c6.0977 8.4492 13.418 15.941 21.727 22.227zm-32.855-36.305-27.125-33.879c-0.83203-1.043-1.6445-2.1875-2.457-3.3516 12.895-12.215 22.984-27.078 29.582-43.566 6.5938 16.484 16.68 31.344 29.566 43.559-0.8125 1.1641-1.6289 2.3086-2.457 3.3516zm-9.1445-116.86c-2.1836 24.582-12.941 47.617-30.391 65.07-17.453 17.449-40.488 28.207-65.07 30.391 2.1836-24.582 12.941-47.617 30.391-65.07 17.453-17.449 40.488-28.207 65.07-30.391zm-63.211 106c10.402-3.7383 20.246-8.8711 29.262-15.258 0.76953 1.0586 1.5312 2.1602 2.3203 3.1484l18.121 22.645c-15.918 25.07-43.469 40.344-73.16 40.566 1.9297-19.164 10.18-37.145 23.457-51.102zm-14.758 112.35c1.5469-16.832 7.2617-33.016 16.625-47.094 7.8984-2.0391 15.535-5 22.75-8.8203 2.0664 3.5586 4.3789 6.9688 6.918 10.203l19.609 24.5c-16.266 13.309-36.527 20.773-57.539 21.211zm87.113 27.66-21.684-27.168v-0.003907c3.9609-2.4688 7.7812-5.1523 11.445-8.0391l3.4023 4.2695h0.003907c1.6602 2.0781 4.1719 3.2852 6.832 3.2852s5.1719-1.207 6.832-3.2852l3.3672-4.2188h0.003906c3.6641 2.9102 7.4961 5.6094 11.469 8.0781zm87.113-27.66h-8.3633c-21.043-0.35156-41.352-7.8047-57.629-21.148l19.652-24.562c2.543-3.2344 4.8555-6.6445 6.9219-10.203 7.2383 3.8281 14.898 6.793 22.828 8.832 9.3555 14.07 15.059 30.254 16.59 47.082zm8.6992-61.25c-29.691-0.22266-57.242-15.496-73.16-40.566l18.121-22.645c0.78906-0.98828 1.5469-2.082 2.3203-3.1484 9.0156 6.3867 18.859 11.52 29.262 15.258 13.277 13.957 21.527 31.938 23.457 51.102zm8.75-61.645c-24.586-2.1836-47.617-12.941-65.07-30.391-17.449-17.453-28.211-40.488-30.391-65.07 24.59 2.1719 47.633 12.926 65.094 30.379 17.461 17.453 28.227 40.492 30.41 65.082zm190.75 147.27v0.003906c-1.707 2.9883-3.6289 5.8477-5.75 8.5547l-27.062 33.891-27.125-33.891c-2.1211-2.707-4.043-5.5664-5.75-8.5547 8.3008-6.2891 15.617-13.781 21.711-22.227l4.3125 5.3906c1.6602 2.0742 4.1758 3.2852 6.8359 3.2852 2.6562 0 5.1719-1.2109 6.832-3.2852l4.3125-5.3906c6.0977 8.4453 13.422 15.938 21.727 22.227zm-32.812-36.301-27.125-33.891c-0.83203-1.0312-1.6445-2.1875-2.457-3.3516 12.898-12.215 22.992-27.086 29.582-43.582 6.5898 16.484 16.676 31.34 29.566 43.547-0.8125 1.1719-1.6289 2.3203-2.457 3.3516zm-74.242-86.492v-0.003906c17.414-17.512 40.484-28.273 65.098-30.359-2.1797 24.586-12.941 47.621-30.395 65.074-17.453 17.449-40.488 28.207-65.074 30.387 2.0938-24.613 12.855-47.68 30.371-65.102zm1.8984 75.645v-0.003906c10.395-3.7383 20.234-8.8672 29.25-15.25 0.76953 1.0586 1.5312 2.1602 2.3203 3.1406l18.121 22.637c-15.914 25.066-43.469 40.344-73.16 40.555 1.9336-19.152 10.188-37.117 23.469-51.055zm-14.77 112.35v-0.003906c1.5469-16.832 7.2617-33.012 16.625-47.086 7.8984-2.043 15.535-5.0078 22.75-8.8281 2.0664 3.5586 4.3789 6.9648 6.918 10.203l19.617 24.5c-16.273 13.305-36.531 20.77-57.547 21.211zm87.113 27.672-21.691-27.168c3.9609-2.4688 7.7852-5.1484 11.453-8.0352l3.4023 4.2617h0.003907c1.6602 2.0781 4.1719 3.2852 6.832 3.2852s5.1719-1.207 6.832-3.2852l3.3672-4.207h0.003906c3.668 2.9062 7.4961 5.6016 11.469 8.0742zm87.113-27.66h-8.3633c-21.043-0.35156-41.352-7.8047-57.629-21.148l19.652-24.562v0.003906c2.543-3.2383 4.8555-6.6484 6.9219-10.203 7.2422 3.8281 14.91 6.7969 22.848 8.8359 9.3359 14.07 15.031 30.242 16.57 47.059zm8.6992-61.25c-29.699-0.22266-57.25-15.512-73.16-40.59l18.121-22.645c0.78906-0.98828 1.5469-2.0898 2.3203-3.1484v-0.003906c9.0156 6.3984 18.855 11.543 29.25 15.297 13.281 13.941 21.539 31.914 23.469 51.074zm8.75-61.645v0.003907c-24.586-2.1836-47.617-12.941-65.07-30.395-17.449-17.453-28.211-40.484-30.391-65.07 24.586 2.1758 47.625 12.93 65.086 30.379s28.227 40.48 30.418 65.066zm-15.984-249.55-25.488 10.195h-0.003906c-26.781 10.656-55.883 14.141-84.426 10.109-28.539-4.0312-55.535-15.438-78.324-33.094-2.8867-2.2422-6.8594-2.4531-9.9688-0.53125-3.1094 1.9219-4.6953 5.5742-3.9766 9.1602l14.098 70.508-0.003906-0.003907c-26.586-13.469-49.148-33.711-65.422-58.684-16.27-24.973-25.672-53.793-27.258-83.555h75.391c75.344-0.066406 148.21 26.855 205.43 75.879z"/>
  <use x="70" y="691.25" xlink:href="#i"/>
  <use x="102.109375" y="691.25" xlink:href="#d"/>
  <use x="123.683594" y="691.25" xlink:href="#c"/>
  <use x="153.355469" y="691.25" xlink:href="#a"/>
  <use x="182.878906" y="691.25" xlink:href="#h"/>
  <use x="203.792969" y="691.25" xlink:href="#c"/>
  <use x="233.464844" y="691.25" xlink:href="#b"/>
  <use x="280.011719" y="691.25" xlink:href="#g"/>
  <use x="311.328125" y="691.25" xlink:href="#f"/>
  <use x="355.078125" y="691.25" xlink:href="#b"/>
  <use x="386.398438" y="691.25" xlink:href="#e"/>
  <use x="422.714844" y="691.25" xlink:href="#a"/>
  <use x="452.234375" y="691.25" xlink:href="#d"/>
  <use x="473.8125" y="691.25" xlink:href="#a"/>
 </g>
</svg>
